<mxfile host="app.diagrams.net" modified="2024-04-14T23:39:17.403Z" agent="Mozilla/5.0 (Windows NT 10.0; Win64; x64) AppleWebKit/537.36 (KHTML, like Gecko) Chrome/123.0.0.0 Safari/537.36" etag="zM1Smi1V1PyKSulUyyqA" version="22.1.16" type="github">
  <diagram name="Page-1" id="pNg9uB7DIMF8Ac7twuoz">
    <mxGraphModel dx="1050" dy="618" grid="1" gridSize="10" guides="1" tooltips="1" connect="1" arrows="1" fold="1" page="1" pageScale="1" pageWidth="850" pageHeight="1100" math="0" shadow="0">
      <root>
        <mxCell id="0" />
        <mxCell id="1" parent="0" />
        <mxCell id="54JFzNNIqLwn8hnlvpv5-3" value="" style="edgeStyle=orthogonalEdgeStyle;rounded=0;orthogonalLoop=1;jettySize=auto;html=1;" edge="1" parent="1" source="54JFzNNIqLwn8hnlvpv5-1" target="54JFzNNIqLwn8hnlvpv5-2">
          <mxGeometry relative="1" as="geometry" />
        </mxCell>
        <mxCell id="54JFzNNIqLwn8hnlvpv5-1" value="1" style="ellipse;whiteSpace=wrap;html=1;aspect=fixed;" vertex="1" parent="1">
          <mxGeometry x="370" y="80" width="70" height="70" as="geometry" />
        </mxCell>
        <mxCell id="54JFzNNIqLwn8hnlvpv5-2" value="2" style="ellipse;whiteSpace=wrap;html=1;aspect=fixed;" vertex="1" parent="1">
          <mxGeometry x="370" y="230" width="70" height="70" as="geometry" />
        </mxCell>
        <mxCell id="54JFzNNIqLwn8hnlvpv5-4" value="3" style="ellipse;whiteSpace=wrap;html=1;aspect=fixed;" vertex="1" parent="1">
          <mxGeometry x="180" y="360" width="70" height="70" as="geometry" />
        </mxCell>
        <mxCell id="54JFzNNIqLwn8hnlvpv5-7" value="" style="endArrow=classic;html=1;rounded=0;entryX=1;entryY=0;entryDx=0;entryDy=0;" edge="1" parent="1" source="54JFzNNIqLwn8hnlvpv5-2" target="54JFzNNIqLwn8hnlvpv5-4">
          <mxGeometry width="50" height="50" relative="1" as="geometry">
            <mxPoint x="290" y="340" as="sourcePoint" />
            <mxPoint x="340" y="290" as="targetPoint" />
          </mxGeometry>
        </mxCell>
        <mxCell id="54JFzNNIqLwn8hnlvpv5-8" value="4" style="ellipse;whiteSpace=wrap;html=1;aspect=fixed;" vertex="1" parent="1">
          <mxGeometry x="570" y="360" width="70" height="70" as="geometry" />
        </mxCell>
        <mxCell id="54JFzNNIqLwn8hnlvpv5-9" value="" style="endArrow=classic;html=1;rounded=0;entryX=0;entryY=0;entryDx=0;entryDy=0;exitX=1;exitY=1;exitDx=0;exitDy=0;" edge="1" parent="1" source="54JFzNNIqLwn8hnlvpv5-2" target="54JFzNNIqLwn8hnlvpv5-8">
          <mxGeometry width="50" height="50" relative="1" as="geometry">
            <mxPoint x="385" y="293" as="sourcePoint" />
            <mxPoint x="250" y="373" as="targetPoint" />
          </mxGeometry>
        </mxCell>
        <mxCell id="54JFzNNIqLwn8hnlvpv5-15" value="5" style="ellipse;whiteSpace=wrap;html=1;aspect=fixed;" vertex="1" parent="1">
          <mxGeometry x="70" y="515" width="70" height="70" as="geometry" />
        </mxCell>
        <mxCell id="54JFzNNIqLwn8hnlvpv5-16" value="" style="endArrow=classic;html=1;rounded=0;entryX=1;entryY=0;entryDx=0;entryDy=0;exitX=0.057;exitY=0.714;exitDx=0;exitDy=0;exitPerimeter=0;" edge="1" parent="1" target="54JFzNNIqLwn8hnlvpv5-15" source="54JFzNNIqLwn8hnlvpv5-4">
          <mxGeometry width="50" height="50" relative="1" as="geometry">
            <mxPoint x="185" y="410" as="sourcePoint" />
            <mxPoint x="150" y="416" as="targetPoint" />
          </mxGeometry>
        </mxCell>
        <mxCell id="54JFzNNIqLwn8hnlvpv5-17" value="6" style="ellipse;whiteSpace=wrap;html=1;aspect=fixed;" vertex="1" parent="1">
          <mxGeometry x="280" y="515" width="70" height="70" as="geometry" />
        </mxCell>
        <mxCell id="54JFzNNIqLwn8hnlvpv5-18" value="" style="endArrow=classic;html=1;rounded=0;entryX=0;entryY=0;entryDx=0;entryDy=0;exitX=1;exitY=1;exitDx=0;exitDy=0;" edge="1" parent="1" target="54JFzNNIqLwn8hnlvpv5-17" source="54JFzNNIqLwn8hnlvpv5-4">
          <mxGeometry width="50" height="50" relative="1" as="geometry">
            <mxPoint x="240" y="416" as="sourcePoint" />
            <mxPoint x="60" y="499" as="targetPoint" />
          </mxGeometry>
        </mxCell>
        <mxCell id="54JFzNNIqLwn8hnlvpv5-22" value="" style="endArrow=classic;html=1;rounded=0;entryX=0.5;entryY=1;entryDx=0;entryDy=0;exitX=1;exitY=0;exitDx=0;exitDy=0;" edge="1" parent="1" source="54JFzNNIqLwn8hnlvpv5-17" target="54JFzNNIqLwn8hnlvpv5-2">
          <mxGeometry width="50" height="50" relative="1" as="geometry">
            <mxPoint x="250" y="430" as="sourcePoint" />
            <mxPoint x="300" y="535" as="targetPoint" />
          </mxGeometry>
        </mxCell>
        <mxCell id="54JFzNNIqLwn8hnlvpv5-23" value="7" style="ellipse;whiteSpace=wrap;html=1;aspect=fixed;" vertex="1" parent="1">
          <mxGeometry x="570" y="515" width="70" height="70" as="geometry" />
        </mxCell>
        <mxCell id="54JFzNNIqLwn8hnlvpv5-24" value="" style="endArrow=classic;html=1;rounded=0;entryX=0.5;entryY=0;entryDx=0;entryDy=0;exitX=0.5;exitY=1;exitDx=0;exitDy=0;" edge="1" parent="1" target="54JFzNNIqLwn8hnlvpv5-23" source="54JFzNNIqLwn8hnlvpv5-8">
          <mxGeometry width="50" height="50" relative="1" as="geometry">
            <mxPoint x="614" y="430" as="sourcePoint" />
            <mxPoint x="580" y="436" as="targetPoint" />
          </mxGeometry>
        </mxCell>
        <mxCell id="54JFzNNIqLwn8hnlvpv5-25" value="8" style="ellipse;whiteSpace=wrap;html=1;aspect=fixed;" vertex="1" parent="1">
          <mxGeometry x="380" y="675" width="70" height="70" as="geometry" />
        </mxCell>
        <mxCell id="54JFzNNIqLwn8hnlvpv5-26" value="" style="endArrow=classic;html=1;rounded=0;entryX=1;entryY=0;entryDx=0;entryDy=0;exitX=0;exitY=1;exitDx=0;exitDy=0;" edge="1" parent="1" target="54JFzNNIqLwn8hnlvpv5-25" source="54JFzNNIqLwn8hnlvpv5-23">
          <mxGeometry width="50" height="50" relative="1" as="geometry">
            <mxPoint x="574" y="570" as="sourcePoint" />
            <mxPoint x="540" y="576" as="targetPoint" />
          </mxGeometry>
        </mxCell>
        <mxCell id="54JFzNNIqLwn8hnlvpv5-27" value="9" style="ellipse;whiteSpace=wrap;html=1;aspect=fixed;" vertex="1" parent="1">
          <mxGeometry x="720" y="675" width="70" height="70" as="geometry" />
        </mxCell>
        <mxCell id="54JFzNNIqLwn8hnlvpv5-28" value="" style="endArrow=classic;html=1;rounded=0;entryX=0;entryY=0;entryDx=0;entryDy=0;exitX=1;exitY=1;exitDx=0;exitDy=0;" edge="1" parent="1" target="54JFzNNIqLwn8hnlvpv5-27" source="54JFzNNIqLwn8hnlvpv5-23">
          <mxGeometry width="50" height="50" relative="1" as="geometry">
            <mxPoint x="630" y="580" as="sourcePoint" />
            <mxPoint x="450" y="659" as="targetPoint" />
          </mxGeometry>
        </mxCell>
        <mxCell id="54JFzNNIqLwn8hnlvpv5-29" value="11" style="ellipse;whiteSpace=wrap;html=1;aspect=fixed;" vertex="1" parent="1">
          <mxGeometry x="650" y="830" width="70" height="70" as="geometry" />
        </mxCell>
        <mxCell id="54JFzNNIqLwn8hnlvpv5-30" value="" style="endArrow=classic;html=1;rounded=0;entryX=0.5;entryY=0;entryDx=0;entryDy=0;exitX=0;exitY=1;exitDx=0;exitDy=0;" edge="1" parent="1" target="54JFzNNIqLwn8hnlvpv5-29" source="54JFzNNIqLwn8hnlvpv5-27">
          <mxGeometry width="50" height="50" relative="1" as="geometry">
            <mxPoint x="699" y="730" as="sourcePoint" />
            <mxPoint x="665" y="736" as="targetPoint" />
          </mxGeometry>
        </mxCell>
        <mxCell id="54JFzNNIqLwn8hnlvpv5-31" value="12" style="ellipse;whiteSpace=wrap;html=1;aspect=fixed;" vertex="1" parent="1">
          <mxGeometry x="790" y="830" width="70" height="70" as="geometry" />
        </mxCell>
        <mxCell id="54JFzNNIqLwn8hnlvpv5-32" value="" style="endArrow=classic;html=1;rounded=0;entryX=0.5;entryY=0;entryDx=0;entryDy=0;exitX=1;exitY=1;exitDx=0;exitDy=0;" edge="1" parent="1" target="54JFzNNIqLwn8hnlvpv5-31" source="54JFzNNIqLwn8hnlvpv5-27">
          <mxGeometry width="50" height="50" relative="1" as="geometry">
            <mxPoint x="755" y="740" as="sourcePoint" />
            <mxPoint x="575" y="819" as="targetPoint" />
          </mxGeometry>
        </mxCell>
        <mxCell id="54JFzNNIqLwn8hnlvpv5-33" value="" style="endArrow=classic;html=1;rounded=0;exitX=0.5;exitY=1;exitDx=0;exitDy=0;entryX=0.5;entryY=0;entryDx=0;entryDy=0;" edge="1" parent="1" source="54JFzNNIqLwn8hnlvpv5-25" target="54JFzNNIqLwn8hnlvpv5-34">
          <mxGeometry width="50" height="50" relative="1" as="geometry">
            <mxPoint x="435" y="745" as="sourcePoint" />
            <mxPoint x="430" y="830" as="targetPoint" />
          </mxGeometry>
        </mxCell>
        <mxCell id="54JFzNNIqLwn8hnlvpv5-34" value="10" style="ellipse;whiteSpace=wrap;html=1;aspect=fixed;" vertex="1" parent="1">
          <mxGeometry x="380" y="830" width="70" height="70" as="geometry" />
        </mxCell>
        <mxCell id="54JFzNNIqLwn8hnlvpv5-36" value="13" style="ellipse;whiteSpace=wrap;html=1;aspect=fixed;" vertex="1" parent="1">
          <mxGeometry x="300" y="1010" width="70" height="70" as="geometry" />
        </mxCell>
        <mxCell id="54JFzNNIqLwn8hnlvpv5-37" value="" style="endArrow=classic;html=1;rounded=0;entryX=0.5;entryY=0;entryDx=0;entryDy=0;exitX=0;exitY=1;exitDx=0;exitDy=0;" edge="1" parent="1" target="54JFzNNIqLwn8hnlvpv5-36">
          <mxGeometry width="50" height="50" relative="1" as="geometry">
            <mxPoint x="390" y="890" as="sourcePoint" />
            <mxPoint x="325" y="891" as="targetPoint" />
          </mxGeometry>
        </mxCell>
        <mxCell id="54JFzNNIqLwn8hnlvpv5-38" value="14" style="ellipse;whiteSpace=wrap;html=1;aspect=fixed;" vertex="1" parent="1">
          <mxGeometry x="460" y="1010" width="70" height="70" as="geometry" />
        </mxCell>
        <mxCell id="54JFzNNIqLwn8hnlvpv5-39" value="" style="endArrow=classic;html=1;rounded=0;entryX=0.5;entryY=0;entryDx=0;entryDy=0;exitX=1;exitY=1;exitDx=0;exitDy=0;" edge="1" parent="1" target="54JFzNNIqLwn8hnlvpv5-38">
          <mxGeometry width="50" height="50" relative="1" as="geometry">
            <mxPoint x="440" y="890" as="sourcePoint" />
            <mxPoint x="235" y="974" as="targetPoint" />
          </mxGeometry>
        </mxCell>
        <mxCell id="54JFzNNIqLwn8hnlvpv5-44" value="" style="endArrow=classic;html=1;rounded=0;entryX=0;entryY=0.5;entryDx=0;entryDy=0;exitX=0;exitY=0.5;exitDx=0;exitDy=0;" edge="1" parent="1" source="54JFzNNIqLwn8hnlvpv5-25" target="54JFzNNIqLwn8hnlvpv5-62">
          <mxGeometry width="50" height="50" relative="1" as="geometry">
            <mxPoint x="370" y="710" as="sourcePoint" />
            <mxPoint x="190" y="1010" as="targetPoint" />
            <Array as="points">
              <mxPoint x="250" y="710" />
              <mxPoint x="250" y="1175" />
            </Array>
          </mxGeometry>
        </mxCell>
        <mxCell id="54JFzNNIqLwn8hnlvpv5-46" value="incomeList.hasNext()" style="text;html=1;strokeColor=none;fillColor=none;align=center;verticalAlign=middle;whiteSpace=wrap;rounded=0;rotation=-30;fontColor=#FF0000;" vertex="1" parent="1">
          <mxGeometry x="230" y="300" width="140" height="30" as="geometry" />
        </mxCell>
        <mxCell id="54JFzNNIqLwn8hnlvpv5-47" value="! incomeList.hasNext()" style="text;html=1;strokeColor=none;fillColor=none;align=center;verticalAlign=middle;whiteSpace=wrap;rounded=0;rotation=30;fontColor=#FF0000;" vertex="1" parent="1">
          <mxGeometry x="440" y="300" width="140" height="30" as="geometry" />
        </mxCell>
        <mxCell id="54JFzNNIqLwn8hnlvpv5-48" value="i = 0" style="text;html=1;strokeColor=none;fillColor=none;align=center;verticalAlign=middle;whiteSpace=wrap;rounded=0;" vertex="1" parent="1">
          <mxGeometry x="640" y="370" width="60" height="30" as="geometry" />
        </mxCell>
        <mxCell id="54JFzNNIqLwn8hnlvpv5-49" value="i &amp;lt; childAgeList.length" style="text;html=1;strokeColor=none;fillColor=none;align=center;verticalAlign=middle;whiteSpace=wrap;rounded=0;rotation=-40;fontColor=#FF0000;" vertex="1" parent="1">
          <mxGeometry x="430" y="600" width="140" height="30" as="geometry" />
        </mxCell>
        <mxCell id="54JFzNNIqLwn8hnlvpv5-50" value="i &amp;gt;= childAgeList.length" style="text;html=1;strokeColor=none;fillColor=none;align=center;verticalAlign=middle;whiteSpace=wrap;rounded=0;rotation=45;fontColor=#FF0000;" vertex="1" parent="1">
          <mxGeometry x="620" y="600" width="140" height="30" as="geometry" />
        </mxCell>
        <mxCell id="54JFzNNIqLwn8hnlvpv5-51" value="income &amp;lt; 0" style="text;html=1;strokeColor=none;fillColor=none;align=center;verticalAlign=middle;whiteSpace=wrap;rounded=0;rotation=-60;fontColor=#FF0000;" vertex="1" parent="1">
          <mxGeometry x="70" y="440" width="140" height="30" as="geometry" />
        </mxCell>
        <mxCell id="54JFzNNIqLwn8hnlvpv5-52" value="income &amp;gt;= 0" style="text;html=1;strokeColor=none;fillColor=none;align=center;verticalAlign=middle;whiteSpace=wrap;rounded=0;rotation=60;fontColor=#FF0000;" vertex="1" parent="1">
          <mxGeometry x="210" y="440" width="140" height="30" as="geometry" />
        </mxCell>
        <mxCell id="54JFzNNIqLwn8hnlvpv5-53" value="taxAmount &amp;gt; 0" style="text;html=1;strokeColor=none;fillColor=none;align=center;verticalAlign=middle;whiteSpace=wrap;rounded=0;rotation=-60;fontColor=#FF0000;" vertex="1" parent="1">
          <mxGeometry x="630" y="760" width="140" height="30" as="geometry" />
        </mxCell>
        <mxCell id="54JFzNNIqLwn8hnlvpv5-54" value="taxAmount &amp;lt;= 0" style="text;html=1;strokeColor=none;fillColor=none;align=center;verticalAlign=middle;whiteSpace=wrap;rounded=0;rotation=60;fontColor=#FF0000;" vertex="1" parent="1">
          <mxGeometry x="740" y="760" width="140" height="30" as="geometry" />
        </mxCell>
        <mxCell id="54JFzNNIqLwn8hnlvpv5-55" value="childAgeList[i] &amp;lt; 18" style="text;html=1;strokeColor=none;fillColor=none;align=center;verticalAlign=middle;whiteSpace=wrap;rounded=0;fontColor=#FF0000;" vertex="1" parent="1">
          <mxGeometry x="420" y="760" width="110" height="30" as="geometry" />
        </mxCell>
        <mxCell id="54JFzNNIqLwn8hnlvpv5-56" value="childAgeList[i] &amp;gt;= 18" style="text;html=1;strokeColor=none;fillColor=none;align=center;verticalAlign=middle;whiteSpace=wrap;rounded=0;fontColor=#FF0000;" vertex="1" parent="1">
          <mxGeometry x="237.5" y="675" width="125" height="30" as="geometry" />
        </mxCell>
        <mxCell id="54JFzNNIqLwn8hnlvpv5-57" value="noMinorChildren &amp;lt;= 3" style="text;html=1;strokeColor=none;fillColor=none;align=center;verticalAlign=middle;whiteSpace=wrap;rounded=0;rotation=-60;fontColor=#FF0000;" vertex="1" parent="1">
          <mxGeometry x="290" y="920" width="120" height="30" as="geometry" />
        </mxCell>
        <mxCell id="54JFzNNIqLwn8hnlvpv5-58" value="noMinorChildren &amp;gt; 3" style="text;html=1;strokeColor=none;fillColor=none;align=center;verticalAlign=middle;whiteSpace=wrap;rounded=0;rotation=60;fontColor=#FF0000;" vertex="1" parent="1">
          <mxGeometry x="425" y="930" width="120" height="30" as="geometry" />
        </mxCell>
        <mxCell id="54JFzNNIqLwn8hnlvpv5-62" value="15" style="ellipse;whiteSpace=wrap;html=1;aspect=fixed;" vertex="1" parent="1">
          <mxGeometry x="380" y="1140" width="70" height="70" as="geometry" />
        </mxCell>
        <mxCell id="54JFzNNIqLwn8hnlvpv5-63" value="" style="endArrow=classic;html=1;rounded=0;entryX=0;entryY=0;entryDx=0;entryDy=0;exitX=0.5;exitY=1;exitDx=0;exitDy=0;" edge="1" parent="1" source="54JFzNNIqLwn8hnlvpv5-36" target="54JFzNNIqLwn8hnlvpv5-62">
          <mxGeometry width="50" height="50" relative="1" as="geometry">
            <mxPoint x="400" y="900" as="sourcePoint" />
            <mxPoint x="345" y="1020" as="targetPoint" />
          </mxGeometry>
        </mxCell>
        <mxCell id="54JFzNNIqLwn8hnlvpv5-64" value="" style="endArrow=classic;html=1;rounded=0;entryX=1;entryY=0;entryDx=0;entryDy=0;exitX=0.5;exitY=1;exitDx=0;exitDy=0;" edge="1" parent="1" source="54JFzNNIqLwn8hnlvpv5-38" target="54JFzNNIqLwn8hnlvpv5-62">
          <mxGeometry width="50" height="50" relative="1" as="geometry">
            <mxPoint x="345" y="1090" as="sourcePoint" />
            <mxPoint x="390" y="1180" as="targetPoint" />
          </mxGeometry>
        </mxCell>
        <mxCell id="54JFzNNIqLwn8hnlvpv5-66" value="" style="endArrow=classic;html=1;rounded=0;entryX=0.5;entryY=1;entryDx=0;entryDy=0;exitX=1;exitY=0.5;exitDx=0;exitDy=0;" edge="1" parent="1" source="54JFzNNIqLwn8hnlvpv5-62" target="54JFzNNIqLwn8hnlvpv5-23">
          <mxGeometry width="50" height="50" relative="1" as="geometry">
            <mxPoint x="505" y="1090" as="sourcePoint" />
            <mxPoint x="450" y="1160" as="targetPoint" />
            <Array as="points">
              <mxPoint x="605" y="1175" />
            </Array>
          </mxGeometry>
        </mxCell>
        <mxCell id="54JFzNNIqLwn8hnlvpv5-67" value="i++" style="text;html=1;strokeColor=none;fillColor=none;align=center;verticalAlign=middle;whiteSpace=wrap;rounded=0;" vertex="1" parent="1">
          <mxGeometry x="385" y="1220" width="60" height="30" as="geometry" />
        </mxCell>
        <mxCell id="54JFzNNIqLwn8hnlvpv5-68" value="taxExemption += 4000" style="text;html=1;strokeColor=none;fillColor=none;align=center;verticalAlign=middle;whiteSpace=wrap;rounded=0;" vertex="1" parent="1">
          <mxGeometry x="270" y="1080" width="60" height="30" as="geometry" />
        </mxCell>
        <mxCell id="54JFzNNIqLwn8hnlvpv5-69" value="taxExemption += 3000" style="text;html=1;strokeColor=none;fillColor=none;align=center;verticalAlign=middle;whiteSpace=wrap;rounded=0;" vertex="1" parent="1">
          <mxGeometry x="520" y="1080" width="60" height="30" as="geometry" />
        </mxCell>
        <mxCell id="54JFzNNIqLwn8hnlvpv5-71" value="noMinorChildren += 1" style="text;html=1;strokeColor=none;fillColor=none;align=center;verticalAlign=middle;whiteSpace=wrap;rounded=0;" vertex="1" parent="1">
          <mxGeometry x="465" y="830" width="60" height="30" as="geometry" />
        </mxCell>
        <mxCell id="54JFzNNIqLwn8hnlvpv5-72" value="taxAmount = incomeAmount * FLAT_TAX_RATE - taxExemption" style="text;html=1;strokeColor=none;fillColor=none;align=center;verticalAlign=middle;whiteSpace=wrap;rounded=0;" vertex="1" parent="1">
          <mxGeometry x="790" y="675" width="160" height="30" as="geometry" />
        </mxCell>
        <mxCell id="54JFzNNIqLwn8hnlvpv5-73" value="incomeAmount += income" style="text;html=1;strokeColor=none;fillColor=none;align=center;verticalAlign=middle;whiteSpace=wrap;rounded=0;" vertex="1" parent="1">
          <mxGeometry x="270" y="585" width="100" height="30" as="geometry" />
        </mxCell>
        <mxCell id="54JFzNNIqLwn8hnlvpv5-74" value="return -1" style="text;html=1;strokeColor=none;fillColor=none;align=center;verticalAlign=middle;whiteSpace=wrap;rounded=0;" vertex="1" parent="1">
          <mxGeometry x="75" y="590" width="60" height="30" as="geometry" />
        </mxCell>
        <mxCell id="54JFzNNIqLwn8hnlvpv5-75" value="return taxAmount" style="text;html=1;strokeColor=none;fillColor=none;align=center;verticalAlign=middle;whiteSpace=wrap;rounded=0;" vertex="1" parent="1">
          <mxGeometry x="645" y="910" width="80" height="30" as="geometry" />
        </mxCell>
        <mxCell id="54JFzNNIqLwn8hnlvpv5-76" value="return 0" style="text;html=1;strokeColor=none;fillColor=none;align=center;verticalAlign=middle;whiteSpace=wrap;rounded=0;" vertex="1" parent="1">
          <mxGeometry x="790" y="910" width="80" height="30" as="geometry" />
        </mxCell>
        <mxCell id="54JFzNNIqLwn8hnlvpv5-77" value="income = incomeList.next()" style="text;html=1;strokeColor=none;fillColor=none;align=center;verticalAlign=middle;whiteSpace=wrap;rounded=0;" vertex="1" parent="1">
          <mxGeometry x="90" y="370" width="60" height="30" as="geometry" />
        </mxCell>
      </root>
    </mxGraphModel>
  </diagram>
</mxfile>
